<?xml version="1.0" ?><svg viewBox="0 0 24 24" xmlns="http://www.w3.org/2000/svg"><title/><g data-name="Layer 2" id="Layer_2"><path d="M6,13.65V19a1,1,0,0,0,1,1H8v2h2V20h1a1,1,0,0,0,1-1V13.4L21.15,12A1,1,0,0,0,22,11V5a1,1,0,0,0-.85-1L8.89,2.12a6.07,6.07,0,0,0-2.68.15,6.17,6.17,0,0,0-3,2.14A6,6,0,0,0,6,13.65ZM10,18H8V14a6.78,6.78,0,0,0,.89-.08L10,13.71ZM4.79,5.61a4.14,4.14,0,0,1,2-1.44,3.47,3.47,0,0,1,1-.14,5.31,5.31,0,0,1,.77.06L20,5.86v4.28l-9.15,1.41h0l-2.26.35a4.51,4.51,0,0,1-1.47,0,1.68,1.68,0,0,1-.31-.07,4,4,0,0,1-2-6.21Z"/><path d="M8,11A3,3,0,1,0,5,8,3,3,0,0,0,8,11ZM8,7A1,1,0,1,1,7,8,1,1,0,0,1,8,7Z"/></g></svg>